<svg xmlns="http://www.w3.org/2000/svg" viewBox="0 0 48 48" shape-rendering="crispEdges">
  <rect width="48" height="48" fill="white"/>
  <g transform="translate(0,48) scale(0.1,-0.1)">
    <path d="M0 240 l0 -240 240 0 240 0 0 240 0 240 -240 0 -240 0 0 -240z m370 190 l0 -30 -100 0 -100 0 0 -100 0 -100 -30 0 -30 0 0 100 0 100 -45 0 -45 0 0 30 0 30 175 0 175 0 0 -30z m90 -145 l0 -175 -30 0 -30 0 0 100 0 100 -100 0 -100 0 0 30 0 30 100 0 100 0 0 45 0 45 30 0 30 0 0 -175z m-380 -15 l0 -100 100 0 100 0 0 -30 0 -30 -100 0 -100 0 0 -45 0 -45 -30 0 -30 0 0 175 0 175 30 0 30 0 0 -100z m290 -90 l0 -100 45 0 45 0 0 -30 0 -30 -175 0 -175 0 0 30 0 30 100 0 100 0 0 100 0 100 30 0 30 0 0 -100z" fill="#6699FF" fill-rule="evenodd"/>
  </g>
</svg>
